<?xml version="1.0" encoding="utf-8"?>
<!-- Generator: Adobe Illustrator 19.2.1, SVG Export Plug-In . SVG Version: 6.00 Build 0)  -->
<svg version="1.1" id="layer" xmlns="http://www.w3.org/2000/svg" xmlns:xlink="http://www.w3.org/1999/xlink" x="0px" y="0px"
	 viewBox="0 0 652 652" style="enable-background:new 0 0 652 652;" xml:space="preserve">
<style type="text/css">
	.st0{fill:#ED1A3B;}
</style>
<path d="M222,266h12.4l9.8,25.6l10.4-25.6H267l7.3,48.2h-12.5l-3.7-27.8l0,0l-11.6,27.8h-5l-11-27.8l0,0l-4.4,27.9h-12.5L222,266z
	 M296.4,306l-3.3,8.4h-13.3l18.6-48.4h13.7l18.3,48.2H317l-3.2-8.4L296.4,306z M305.2,281.1L305.2,281.1l-5.2,15.3h10.4L305.2,281.1
	z M348.6,303.8h15.1v10.6h-27.5V266h12.5L348.6,303.8z M380.1,266h12.4l9.8,25.6l10.4-25.6h12.5l7.3,48.2h-12.5l-3.7-27.8l0,0
	l-11.6,27.8h-5l-11-27.8l0,0l-4,27.8h-12.5L380.1,266z M489.3,289.4c0,14.7-12,26.7-26.7,26.7c-14.7,0-26.7-11.9-26.7-26.7
	c0-14.7,12.8-24.8,26.7-24.8S489.3,274.8,489.3,289.4z M460.7,256c0,3.5-2.8,6.3-6.3,6.3s-6.3-2.8-6.3-6.3c0-3.5,2.8-6.3,6.3-6.3
	c0,0,0,0,0.1,0C457.9,249.7,460.7,252.5,460.7,256C460.7,255.9,460.7,255.9,460.7,256z M448.9,289.5c-0.6,7.5,5.1,14.1,12.6,14.6
	c7.5,0.6,14.1-5.1,14.6-12.6c0-0.7,0-1.3,0-2c-0.6-7.5-7.1-13.2-14.6-12.6C454.8,277.3,449.4,282.7,448.9,289.5z M477.1,256
	c0,3.5-2.8,6.4-6.3,6.4c-3.5,0-6.4-2.8-6.4-6.3c0-3.5,2.8-6.4,6.3-6.4c0,0,0.1,0,0.1,0c3.5-0.1,6.3,2.7,6.4,6.2
	C477.2,255.9,477.2,255.9,477.1,256L477.1,256z M531.1,381.3h-12.6V333h12.6L531.1,381.3z M560.9,381.3h-12.5v-37.7H538V333h33.3
	v10.6h-10.4L560.9,381.3z M573.8,333h15.2l9,13.1l9-13.1h14.9l-17.8,25.1v23.2h-12.5v-23.2L573.8,333z M256,333v27.1
	c0,6.2-0.3,12.3-5.1,17c-9.5,7.2-22.6,7.2-32,0c-4.8-4.7-5.1-11-5.1-17V333h12.4v25.4c0,6.3,0.5,13.1,8.5,13.1s8.5-6.9,8.5-13.1V333
	L256,333z M264.6,333h12.5l23,29.5l0,0V333h12.6v48.3h-12.6l-23-29.6l0,0v29.6h-12.5L264.6,333z M333.9,381.3h-12.4V333h12.6
	L333.9,381.3z M364.2,362.3L376,333h13.6l-20.5,48.3h-9.7L339.1,333h13.6L364.2,362.3z M407.2,343.6v8.1h14.1v10.6h-14.1v8.3h14.9
	v10.7h-27.4V333h27.5v10.6H407.2z M471.9,381.3h-15.6l-11.8-18.6l0,0v18.6h-12.5V333h18.8c9.5,0,16.8,4.5,16.8,14.7
	c0.4,6.6-4.1,12.4-10.6,13.7L471.9,381.3z M444.3,354.6h1.2c4.1,0,8.7-0.8,8.7-6c0-5.3-4.6-6-8.7-6h-1.2V354.6z M503.7,345.4
	c-2.3-2-5.3-3.1-8.3-3.2c-2.3,0-5.4,1.3-5.4,4s3.4,3.9,5.6,4.6l3.2,1c6.7,2,11.9,5.4,11.9,13.2c0.4,4.8-1.5,9.6-5,13
	c-3.9,3.1-8.7,4.7-13.7,4.6c-6.1-0.1-12-2-17-5.5l5.4-10.1c2.9,2.9,6.8,4.7,11,5c2.9,0,6.1-1.5,6.1-4.8c0-3.4-4.9-4.8-7.6-5.5
	c-7.9-2.2-13.1-4.3-13.1-13.6c-0.3-8.7,6.5-15.9,15.1-16.2c0.5,0,1,0,1.5,0c5.3,0.1,10.5,1.4,15.1,4L503.7,345.4z"/>
<path class="st0" d="M21.9,402.2V262.9l136.8-44.4l27.4,21.4L49.3,284.2v139.4L21.9,402.2z M104,296.7v109.1l-27.4-21.4v-78.8
	L104,296.7z M131.3,287.8l27.3-8.9V388l-27.3-21.4V287.8z"/>
</svg>
